<svg width="570" height="110" viewBox="0 0 570 110" fill="none" xmlns="http://www.w3.org/2000/svg">
<g clip-path="url(#clip0_1_2)">
<g filter="url(#filter0_d_1_2)">
<mask id="path-1-inside-1_1_2" fill="white">
<path d="M419.4 40.5H433.2C435.3 40.5 437 41.1 438.3 42.3C439.6 43.5 440.2 45.1 440.2 47V51.2C440.2 53.3 439.5 55 438.1 56.3C436.7 57.6 434.9 58.2 432.6 58.2H422.3V69H419.3V40.5H419.4ZM432.6 55.6C434 55.6 435.1 55.2 435.9 54.4C436.7 53.6 437.2 52.5 437.2 51.2V47C437.2 45.9 436.8 45 436.1 44.3C435.4 43.6 434.4 43.3 433.1 43.3H422.4V55.6H432.6ZM444.7 48.7H447.6V51.8C448.1 50.8 449 50.1 450.1 49.5C451.2 48.9 452.3 48.6 453.5 48.6H455.3V51.2H453.5C451.8 51.2 450.4 51.8 449.3 52.8C448.2 53.9 447.7 55.4 447.7 57.2V68.9H444.8V48.7H444.7ZM459.7 67.3C458.3 65.9 457.6 64 457.6 61.7V56.1C457.6 53.8 458.3 51.9 459.7 50.5C461.1 49.1 463 48.4 465.3 48.4H468.6C470.9 48.4 472.8 49.1 474.2 50.5C475.6 51.9 476.3 53.8 476.3 56.1V61.7C476.3 64 475.6 65.9 474.2 67.3C472.8 68.7 470.9 69.4 468.6 69.4H465.3C462.9 69.4 461.1 68.7 459.7 67.3ZM468.6 66.8C470.1 66.8 471.2 66.3 472.1 65.4C473 64.5 473.4 63.2 473.4 61.7V56.1C473.4 54.6 473 53.3 472.1 52.4C471.2 51.5 470.1 51 468.7 51H465.4C464 51 462.8 51.5 462 52.4C461.2 53.3 460.7 54.6 460.7 56.1V61.7C460.7 63.3 461.1 64.5 462 65.4C462.8 66.3 464 66.8 465.4 66.8H468.6ZM481 48.7V42.5H483.9V48.7H489.2V51.3H484V63.1C484 64.3 484.2 65.2 484.7 65.7C485.2 66.2 486 66.5 487.1 66.5H489.3V69.1H487.1C485 69.1 483.4 68.6 482.5 67.7C481.6 66.8 481.1 65.3 481.1 63.1V51.3M495.3 67.3C493.9 65.9 493.2 64 493.2 61.7V56.1C493.2 53.8 493.9 51.9 495.3 50.5C496.7 49.1 498.6 48.4 500.9 48.4H504.2C506.5 48.4 508.4 49.1 509.8 50.5C511.2 51.9 511.9 53.8 511.9 56.1V61.7C511.9 64 511.2 65.9 509.8 67.3C508.4 68.7 506.5 69.4 504.2 69.4H500.9C498.5 69.4 496.7 68.7 495.3 67.3ZM504.1 66.8C505.6 66.8 506.7 66.3 507.6 65.4C508.5 64.5 508.9 63.2 508.9 61.7V56.1C508.9 54.6 508.5 53.3 507.6 52.4C506.7 51.5 505.6 51 504.2 51H500.9C499.5 51 498.3 51.5 497.5 52.4C496.7 53.3 496.2 54.6 496.2 56.1V61.7C496.2 63.3 496.6 64.5 497.5 65.4C498.3 66.3 499.5 66.8 500.9 66.8H504.1ZM518.4 67.4C517 66.1 516.4 64.3 516.4 62V56.2C516.4 53.9 517.1 52 518.4 50.6C519.8 49.2 521.5 48.5 523.7 48.5H527C529.1 48.5 530.8 49.1 532.1 50.2C533.4 51.4 534 52.9 534 54.8H531.1C531.1 53.7 530.7 52.8 530 52.1C529.3 51.4 528.3 51.1 527 51.1H523.7C522.4 51.1 521.3 51.6 520.5 52.5C519.7 53.5 519.3 54.7 519.3 56.2V62C519.3 63.4 519.7 64.6 520.5 65.5C521.3 66.4 522.4 66.8 523.7 66.8H527C528.3 66.8 529.3 66.4 530.1 65.5C530.9 64.6 531.3 63.4 531.3 61.9H534.2C534.2 64.2 533.5 66 532.2 67.4C530.9 68.8 529.2 69.5 527.1 69.5H523.8C521.6 69.4 519.8 68.7 518.4 67.4ZM540.3 67.3C538.9 65.9 538.2 64 538.2 61.7V56.1C538.2 53.8 538.9 51.9 540.3 50.5C541.7 49.1 543.6 48.4 545.9 48.4H549.2C551.5 48.4 553.4 49.1 554.8 50.5C556.2 51.9 556.9 53.8 556.9 56.1V61.7C556.9 64 556.2 65.9 554.8 67.3C553.4 68.7 551.5 69.4 549.2 69.4H545.9C543.5 69.4 541.7 68.7 540.3 67.3ZM549.2 66.8C550.7 66.8 551.8 66.3 552.7 65.4C553.6 64.5 554 63.2 554 61.7V56.1C554 54.6 553.6 53.3 552.7 52.4C551.8 51.5 550.7 51 549.3 51H546C544.6 51 543.4 51.5 542.6 52.4C541.8 53.3 541.3 54.6 541.3 56.1V61.7C541.3 63.3 541.7 64.5 542.6 65.4C543.4 66.3 544.6 66.8 546 66.8H549.2ZM563.6 67.8C562.7 66.9 562.3 65.5 562.3 63.5V40.5H565.2V63.5C565.2 64.5 565.4 65.3 565.8 65.7C566.2 66.2 566.9 66.4 567.9 66.4H569.3V69H567.9C565.9 69.1 564.5 68.6 563.6 67.8ZM108.7 63.9C109.2 61 109.4 58 109.4 55C109.4 36 99.6 19.2 84.9 9.4V63.9H108.7ZM47.7 84.2C44.6 86.9 43.1 90.4 42.9 94.7H42.8V108.2C46.6 109 50.6 109.5 54.6 109.5C75.8 109.5 94.2 97.4 103.3 79.7H61.1C55.5 79.8 51.1 81.3 47.7 84.2ZM68.8 31.1C69.2 31.3 69.5 31.5 69.8 31.7V2.4C65 1 59.9 0.300003 54.7 0.300003C34.7 0.300003 17.2 11.1 7.60001 27.2H51.5C58 27.2 63.8 28.5 68.8 31.1ZM69.7 58.1C69.5 53.7 68 50.3 64.9 47.6C61.5 44.6 57.1 43.2 51.4 43.2H42.8V68.4C43.1 68.2 43.5 68 43.8 67.8C48.8 65.2 54.6 63.9 61.1 63.9H69.7V58.1ZM1.40001 43.1C0.500006 46.9 0.100006 50.9 0.100006 55C0.100006 75.4 11.3 93.1 27.8 102.5V43.1H1.40001Z"/>
</mask>
<path d="M419.4 40.5H433.2C435.3 40.5 437 41.1 438.3 42.3C439.6 43.5 440.2 45.1 440.2 47V51.2C440.2 53.3 439.5 55 438.1 56.3C436.7 57.6 434.9 58.2 432.6 58.2H422.3V69H419.3V40.5H419.4ZM432.6 55.6C434 55.6 435.1 55.2 435.9 54.4C436.7 53.6 437.2 52.5 437.2 51.2V47C437.2 45.9 436.8 45 436.1 44.3C435.4 43.6 434.4 43.3 433.1 43.3H422.4V55.6H432.6ZM444.7 48.7H447.6V51.8C448.1 50.8 449 50.1 450.1 49.5C451.2 48.9 452.3 48.6 453.5 48.6H455.3V51.2H453.5C451.8 51.2 450.4 51.8 449.3 52.8C448.2 53.9 447.7 55.4 447.7 57.2V68.9H444.8V48.7H444.7ZM459.7 67.3C458.3 65.9 457.6 64 457.6 61.7V56.1C457.6 53.8 458.3 51.9 459.7 50.5C461.1 49.1 463 48.4 465.3 48.4H468.6C470.9 48.4 472.8 49.1 474.2 50.5C475.6 51.9 476.3 53.8 476.3 56.1V61.7C476.3 64 475.6 65.9 474.2 67.3C472.8 68.7 470.9 69.4 468.6 69.4H465.3C462.9 69.4 461.1 68.7 459.7 67.3ZM468.6 66.8C470.1 66.8 471.2 66.3 472.1 65.4C473 64.5 473.4 63.2 473.4 61.7V56.1C473.4 54.6 473 53.3 472.1 52.4C471.2 51.5 470.1 51 468.7 51H465.4C464 51 462.8 51.5 462 52.4C461.2 53.3 460.7 54.6 460.7 56.1V61.7C460.7 63.3 461.1 64.5 462 65.4C462.8 66.3 464 66.8 465.4 66.8H468.6ZM481 48.7V42.5H483.9V48.7H489.2V51.3H484V63.1C484 64.3 484.2 65.2 484.7 65.7C485.2 66.2 486 66.5 487.1 66.5H489.3V69.1H487.1C485 69.1 483.4 68.6 482.5 67.7C481.6 66.8 481.1 65.3 481.1 63.1V51.3M495.3 67.3C493.9 65.9 493.2 64 493.2 61.7V56.1C493.2 53.8 493.9 51.9 495.3 50.5C496.7 49.1 498.6 48.4 500.9 48.4H504.2C506.5 48.4 508.4 49.1 509.8 50.5C511.2 51.9 511.9 53.8 511.9 56.1V61.7C511.9 64 511.2 65.9 509.8 67.3C508.4 68.7 506.5 69.4 504.2 69.4H500.9C498.5 69.4 496.7 68.7 495.3 67.3ZM504.1 66.8C505.6 66.8 506.7 66.3 507.6 65.4C508.5 64.5 508.9 63.2 508.9 61.7V56.1C508.9 54.6 508.5 53.3 507.6 52.4C506.7 51.5 505.6 51 504.2 51H500.9C499.5 51 498.3 51.5 497.5 52.4C496.7 53.3 496.2 54.6 496.2 56.1V61.7C496.2 63.3 496.6 64.5 497.5 65.4C498.3 66.3 499.5 66.8 500.9 66.8H504.1ZM518.4 67.4C517 66.1 516.4 64.3 516.4 62V56.2C516.4 53.9 517.1 52 518.4 50.6C519.8 49.2 521.5 48.5 523.7 48.5H527C529.1 48.5 530.8 49.1 532.1 50.2C533.4 51.4 534 52.9 534 54.8H531.1C531.1 53.7 530.7 52.8 530 52.1C529.3 51.4 528.3 51.1 527 51.1H523.7C522.4 51.1 521.3 51.6 520.5 52.5C519.7 53.5 519.3 54.7 519.3 56.2V62C519.3 63.4 519.7 64.6 520.5 65.5C521.3 66.4 522.4 66.8 523.7 66.8H527C528.3 66.8 529.3 66.4 530.1 65.5C530.9 64.6 531.3 63.4 531.3 61.9H534.2C534.2 64.2 533.5 66 532.2 67.4C530.9 68.8 529.2 69.5 527.1 69.5H523.8C521.6 69.4 519.8 68.7 518.4 67.4ZM540.3 67.3C538.9 65.9 538.2 64 538.2 61.7V56.1C538.2 53.8 538.9 51.9 540.3 50.5C541.7 49.1 543.6 48.4 545.9 48.4H549.2C551.5 48.4 553.4 49.1 554.8 50.5C556.2 51.9 556.9 53.8 556.9 56.1V61.7C556.9 64 556.2 65.9 554.8 67.3C553.4 68.7 551.5 69.4 549.2 69.4H545.9C543.5 69.4 541.7 68.7 540.3 67.3ZM549.2 66.8C550.7 66.8 551.8 66.3 552.7 65.4C553.6 64.5 554 63.2 554 61.7V56.1C554 54.6 553.6 53.3 552.7 52.4C551.8 51.5 550.7 51 549.3 51H546C544.6 51 543.4 51.5 542.6 52.4C541.8 53.3 541.3 54.6 541.3 56.1V61.7C541.3 63.3 541.7 64.5 542.6 65.4C543.4 66.3 544.6 66.8 546 66.8H549.2ZM563.6 67.8C562.7 66.9 562.3 65.5 562.3 63.5V40.5H565.2V63.5C565.2 64.5 565.4 65.3 565.8 65.7C566.2 66.2 566.9 66.4 567.9 66.4H569.3V69H567.9C565.9 69.1 564.5 68.6 563.6 67.8ZM108.7 63.9C109.2 61 109.4 58 109.4 55C109.4 36 99.6 19.2 84.9 9.4V63.9H108.7ZM47.7 84.2C44.6 86.9 43.1 90.4 42.9 94.7H42.8V108.2C46.6 109 50.6 109.5 54.6 109.5C75.8 109.5 94.2 97.4 103.3 79.7H61.1C55.5 79.8 51.1 81.3 47.7 84.2ZM68.8 31.1C69.2 31.3 69.5 31.5 69.8 31.7V2.4C65 1 59.9 0.300003 54.7 0.300003C34.7 0.300003 17.2 11.1 7.60001 27.2H51.5C58 27.2 63.8 28.5 68.8 31.1ZM69.7 58.1C69.5 53.7 68 50.3 64.9 47.6C61.5 44.6 57.1 43.2 51.4 43.2H42.8V68.4C43.1 68.2 43.5 68 43.8 67.8C48.8 65.2 54.6 63.9 61.1 63.9H69.7V58.1ZM1.40001 43.1C0.500006 46.9 0.100006 50.9 0.100006 55C0.100006 75.4 11.3 93.1 27.8 102.5V43.1H1.40001Z" fill="white"/>
<path d="M422.3 58.2V57.2H421.3V58.2H422.3ZM422.3 69V70H423.3V69H422.3ZM419.3 69H418.3V70H419.3V69ZM419.3 40.5V39.5H418.3V40.5H419.3ZM422.4 43.3V42.3H421.4V43.3H422.4ZM422.4 55.6H421.4V56.6H422.4V55.6ZM447.6 48.7H448.6V47.7H447.6V48.7ZM447.6 51.8H446.6L448.494 52.2472L447.6 51.8ZM455.3 48.6H456.3V47.6H455.3V48.6ZM455.3 51.2V52.2H456.3V51.2H455.3ZM449.3 52.8L448.627 52.0601L448.61 52.0761L448.593 52.0929L449.3 52.8ZM447.7 68.9V69.9H448.7V68.9H447.7ZM444.8 68.9H443.8V69.9H444.8V68.9ZM444.8 48.7H445.8V47.7H444.8V48.7ZM462 65.4L462.747 64.7356L462.728 64.7137L462.707 64.6929L462 65.4ZM481 42.5V41.5H480V42.5H481ZM483.9 42.5H484.9V41.5H483.9V42.5ZM483.9 48.7H482.9V49.7H483.9V48.7ZM489.2 48.7H490.2V47.7H489.2V48.7ZM489.2 51.3V52.3H490.2V51.3H489.2ZM484 51.3V50.3H483V51.3H484ZM489.3 66.5H490.3V65.5H489.3V66.5ZM489.3 69.1V70.1H490.3V69.1H489.3ZM497.5 65.4L498.247 64.7356L498.228 64.7137L498.207 64.6929L497.5 65.4ZM518.4 50.6L517.693 49.8929L517.68 49.906L517.667 49.9196L518.4 50.6ZM532.1 50.2L532.778 49.4652L532.762 49.4506L532.746 49.4366L532.1 50.2ZM534 54.8V55.8H535V54.8H534ZM531.1 54.8H530.1V55.8H531.1V54.8ZM520.5 52.5L519.753 51.8356L519.735 51.855L519.719 51.8753L520.5 52.5ZM531.3 61.9V60.9H530.3V61.9H531.3ZM534.2 61.9H535.2V60.9H534.2V61.9ZM523.8 69.5L523.755 70.499L523.777 70.5H523.8V69.5ZM542.6 65.4L543.347 64.7356L543.328 64.7137L543.307 64.6929L542.6 65.4ZM563.6 67.8L562.893 68.5071L562.914 68.5279L562.936 68.5474L563.6 67.8ZM562.3 40.5V39.5H561.3V40.5H562.3ZM565.2 40.5H566.2V39.5H565.2V40.5ZM565.8 65.7L566.581 65.0753L566.546 65.0321L566.507 64.9929L565.8 65.7ZM569.3 66.4H570.3V65.4H569.3V66.4ZM569.3 69V70H570.3V69H569.3ZM567.9 69V68H567.875L567.85 68.0012L567.9 69ZM108.7 63.9V64.9H109.542L109.685 64.0699L108.7 63.9ZM84.9 9.4L85.4547 8.56795L83.9 7.53149V9.4H84.9ZM84.9 63.9H83.9V64.9H84.9V63.9ZM47.7 84.2L47.051 83.4391L47.0432 83.4459L47.7 84.2ZM42.9 94.7V95.7H43.8546L43.8989 94.7465L42.9 94.7ZM42.8 94.7V93.7H41.8V94.7H42.8ZM42.8 108.2H41.8V109.011L42.594 109.179L42.8 108.2ZM103.3 79.7L104.189 80.1572L104.939 78.7H103.3V79.7ZM61.1 79.7V78.7H61.0911L61.0822 78.7002L61.1 79.7ZM68.8 31.1L68.3387 31.9872L68.3457 31.9909L68.3528 31.9944L68.8 31.1ZM69.8 31.7L69.2453 32.5321L70.8 33.5685V31.7H69.8ZM69.8 2.4H70.8V1.65L70.08 1.44L69.8 2.4ZM7.60001 27.2L6.7411 26.6879L5.83946 28.2H7.60001V27.2ZM69.7 58.1H70.7V58.0773L70.699 58.0546L69.7 58.1ZM64.9 47.6L64.2384 48.3499L64.2432 48.3541L64.9 47.6ZM42.8 43.2V42.2H41.8V43.2H42.8ZM42.8 68.4H41.8V70.2685L43.3547 69.2321L42.8 68.4ZM43.8 67.8L43.3387 66.9128L43.2905 66.9378L43.2453 66.968L43.8 67.8ZM69.7 63.9V64.9H70.7V63.9H69.7ZM1.40001 43.1V42.1H0.609184L0.426926 42.8695L1.40001 43.1ZM27.8 102.5L27.305 103.369L28.8 104.221V102.5H27.8ZM27.8 43.1H28.8V42.1H27.8V43.1ZM419.4 41.5H433.2V39.5H419.4V41.5ZM433.2 41.5C435.098 41.5 436.54 42.0364 437.622 43.0348L438.978 41.5652C437.46 40.1636 435.502 39.5 433.2 39.5V41.5ZM437.622 43.0348C438.681 44.0124 439.2 45.3263 439.2 47H441.2C441.2 44.8737 440.519 42.9876 438.978 41.5652L437.622 43.0348ZM439.2 47V51.2H441.2V47H439.2ZM439.2 51.2C439.2 53.0526 438.594 54.4763 437.42 55.5672L438.78 57.0328C440.406 55.5237 441.2 53.5474 441.2 51.2H439.2ZM437.42 55.5672C436.248 56.6548 434.715 57.2 432.6 57.2V59.2C435.085 59.2 437.152 58.5452 438.78 57.0328L437.42 55.5672ZM432.6 57.2H422.3V59.2H432.6V57.2ZM421.3 58.2V69H423.3V58.2H421.3ZM422.3 68H419.3V70H422.3V68ZM420.3 69V40.5H418.3V69H420.3ZM419.3 41.5H419.4V39.5H419.3V41.5ZM432.6 56.6C434.198 56.6 435.577 56.1371 436.607 55.1071L435.193 53.6929C434.623 54.2629 433.802 54.6 432.6 54.6V56.6ZM436.607 55.1071C437.591 54.1234 438.2 52.7706 438.2 51.2H436.2C436.2 52.2294 435.809 53.0766 435.193 53.6929L436.607 55.1071ZM438.2 51.2V47H436.2V51.2H438.2ZM438.2 47C438.2 45.6318 437.693 44.4783 436.807 43.5929L435.393 45.0071C435.908 45.5217 436.2 46.1682 436.2 47H438.2ZM436.807 43.5929C435.847 42.6329 434.541 42.3 433.1 42.3V44.3C434.259 44.3 434.953 44.5671 435.393 45.0071L436.807 43.5929ZM433.1 42.3H422.4V44.3H433.1V42.3ZM421.4 43.3V55.6H423.4V43.3H421.4ZM422.4 56.6H432.6V54.6H422.4V56.6ZM444.7 49.7H447.6V47.7H444.7V49.7ZM446.6 48.7V51.8H448.6V48.7H446.6ZM448.494 52.2472C448.859 51.5172 449.547 50.9407 450.579 50.3779L449.621 48.6221C448.453 49.2594 447.341 50.0828 446.706 51.3528L448.494 52.2472ZM450.579 50.3779C451.545 49.8507 452.482 49.6 453.5 49.6V47.6C452.118 47.6 450.855 47.9493 449.621 48.6221L450.579 50.3779ZM453.5 49.6H455.3V47.6H453.5V49.6ZM454.3 48.6V51.2H456.3V48.6H454.3ZM455.3 50.2H453.5V52.2H455.3V50.2ZM453.5 50.2C451.544 50.2 449.906 50.898 448.627 52.0601L449.973 53.5399C450.894 52.702 452.056 52.2 453.5 52.2V50.2ZM448.593 52.0929C447.257 53.429 446.7 55.2125 446.7 57.2H448.7C448.7 55.5875 449.143 54.371 450.007 53.5071L448.593 52.0929ZM446.7 57.2V68.9H448.7V57.2H446.7ZM447.7 67.9H444.8V69.9H447.7V67.9ZM445.8 68.9V48.7H443.8V68.9H445.8ZM444.8 47.7H444.7V49.7H444.8V47.7ZM460.407 66.5929C459.229 65.415 458.6 63.788 458.6 61.7H456.6C456.6 64.212 457.371 66.385 458.993 68.0071L460.407 66.5929ZM458.6 61.7V56.1H456.6V61.7H458.6ZM458.6 56.1C458.6 54.012 459.229 52.385 460.407 51.2071L458.993 49.7929C457.371 51.415 456.6 53.588 456.6 56.1H458.6ZM460.407 51.2071C461.585 50.0292 463.212 49.4 465.3 49.4V47.4C462.788 47.4 460.615 48.1708 458.993 49.7929L460.407 51.2071ZM465.3 49.4H468.6V47.4H465.3V49.4ZM468.6 49.4C470.688 49.4 472.315 50.0292 473.493 51.2071L474.907 49.7929C473.285 48.1708 471.112 47.4 468.6 47.4V49.4ZM473.493 51.2071C474.671 52.385 475.3 54.012 475.3 56.1H477.3C477.3 53.588 476.529 51.415 474.907 49.7929L473.493 51.2071ZM475.3 56.1V61.7H477.3V56.1H475.3ZM475.3 61.7C475.3 63.788 474.671 65.415 473.493 66.5929L474.907 68.0071C476.529 66.385 477.3 64.212 477.3 61.7H475.3ZM473.493 66.5929C472.315 67.7708 470.688 68.4 468.6 68.4V70.4C471.112 70.4 473.285 69.6292 474.907 68.0071L473.493 66.5929ZM468.6 68.4H465.3V70.4H468.6V68.4ZM465.3 68.4C463.119 68.4 461.589 67.7749 460.407 66.5929L458.993 68.0071C460.611 69.6251 462.681 70.4 465.3 70.4V68.4ZM468.6 67.8C470.364 67.8 471.719 67.1957 472.807 66.1071L471.393 64.6929C470.681 65.4043 469.836 65.8 468.6 65.8V67.8ZM472.807 66.1071C473.956 64.9585 474.4 63.3642 474.4 61.7H472.4C472.4 63.0358 472.044 64.0415 471.393 64.6929L472.807 66.1071ZM474.4 61.7V56.1H472.4V61.7H474.4ZM474.4 56.1C474.4 54.4358 473.956 52.8415 472.807 51.6929L471.393 53.1071C472.044 53.7585 472.4 54.7642 472.4 56.1H474.4ZM472.807 51.6929C471.727 50.6124 470.375 50 468.7 50V52C469.825 52 470.673 52.3876 471.393 53.1071L472.807 51.6929ZM468.7 50H465.4V52H468.7V50ZM465.4 50C463.76 50 462.271 50.5901 461.253 51.7356L462.747 53.0644C463.329 52.4099 464.24 52 465.4 52V50ZM461.253 51.7356C460.273 52.8372 459.7 54.381 459.7 56.1H461.7C461.7 54.819 462.127 53.7628 462.747 53.0644L461.253 51.7356ZM459.7 56.1V61.7H461.7V56.1H459.7ZM459.7 61.7C459.7 63.4745 460.15 64.9639 461.293 66.1071L462.707 64.6929C462.05 64.0361 461.7 63.1256 461.7 61.7H459.7ZM461.253 66.0644C462.271 67.2099 463.76 67.8 465.4 67.8V65.8C464.24 65.8 463.329 65.3901 462.747 64.7356L461.253 66.0644ZM465.4 67.8H468.6V65.8H465.4V67.8ZM482 48.7V42.5H480V48.7H482ZM481 43.5H483.9V41.5H481V43.5ZM482.9 42.5V48.7H484.9V42.5H482.9ZM483.9 49.7H489.2V47.7H483.9V49.7ZM488.2 48.7V51.3H490.2V48.7H488.2ZM489.2 50.3H484V52.3H489.2V50.3ZM483 51.3V63.1H485V51.3H483ZM483 63.1C483 64.3278 483.186 65.6006 483.993 66.4071L485.407 64.9929C485.214 64.7994 485 64.2722 485 63.1H483ZM483.993 66.4071C484.739 67.1528 485.83 67.5 487.1 67.5V65.5C486.17 65.5 485.661 65.2472 485.407 64.9929L483.993 66.4071ZM487.1 67.5H489.3V65.5H487.1V67.5ZM488.3 66.5V69.1H490.3V66.5H488.3ZM489.3 68.1H487.1V70.1H489.3V68.1ZM487.1 68.1C485.112 68.1 483.834 67.6194 483.207 66.9929L481.793 68.4071C482.966 69.5806 484.888 70.1 487.1 70.1V68.1ZM483.207 66.9929C482.577 66.3628 482.1 65.1799 482.1 63.1H480.1C480.1 65.4201 480.623 67.2372 481.793 68.4071L483.207 66.9929ZM482.1 63.1V51.3H480.1V63.1H482.1ZM496.007 66.5929C494.829 65.415 494.2 63.788 494.2 61.7H492.2C492.2 64.212 492.971 66.385 494.593 68.0071L496.007 66.5929ZM494.2 61.7V56.1H492.2V61.7H494.2ZM494.2 56.1C494.2 54.012 494.829 52.385 496.007 51.2071L494.593 49.7929C492.971 51.415 492.2 53.588 492.2 56.1H494.2ZM496.007 51.2071C497.185 50.0292 498.812 49.4 500.9 49.4V47.4C498.388 47.4 496.215 48.1708 494.593 49.7929L496.007 51.2071ZM500.9 49.4H504.2V47.4H500.9V49.4ZM504.2 49.4C506.288 49.4 507.915 50.0292 509.093 51.2071L510.507 49.7929C508.885 48.1708 506.712 47.4 504.2 47.4V49.4ZM509.093 51.2071C510.271 52.385 510.9 54.012 510.9 56.1H512.9C512.9 53.588 512.129 51.415 510.507 49.7929L509.093 51.2071ZM510.9 56.1V61.7H512.9V56.1H510.9ZM510.9 61.7C510.9 63.788 510.271 65.415 509.093 66.5929L510.507 68.0071C512.129 66.385 512.9 64.212 512.9 61.7H510.9ZM509.093 66.5929C507.915 67.7708 506.288 68.4 504.2 68.4V70.4C506.712 70.4 508.885 69.6292 510.507 68.0071L509.093 66.5929ZM504.2 68.4H500.9V70.4H504.2V68.4ZM500.9 68.4C498.719 68.4 497.189 67.7749 496.007 66.5929L494.593 68.0071C496.211 69.6251 498.281 70.4 500.9 70.4V68.4ZM504.1 67.8C505.864 67.8 507.219 67.1957 508.307 66.1071L506.893 64.6929C506.181 65.4043 505.336 65.8 504.1 65.8V67.8ZM508.307 66.1071C509.456 64.9585 509.9 63.3642 509.9 61.7H507.9C507.9 63.0358 507.544 64.0415 506.893 64.6929L508.307 66.1071ZM509.9 61.7V56.1H507.9V61.7H509.9ZM509.9 56.1C509.9 54.4358 509.456 52.8415 508.307 51.6929L506.893 53.1071C507.544 53.7585 507.9 54.7642 507.9 56.1H509.9ZM508.307 51.6929C507.227 50.6124 505.875 50 504.2 50V52C505.325 52 506.173 52.3876 506.893 53.1071L508.307 51.6929ZM504.2 50H500.9V52H504.2V50ZM500.9 50C499.26 50 497.771 50.5901 496.753 51.7356L498.247 53.0644C498.829 52.4099 499.74 52 500.9 52V50ZM496.753 51.7356C495.773 52.8372 495.2 54.381 495.2 56.1H497.2C497.2 54.819 497.627 53.7628 498.247 53.0644L496.753 51.7356ZM495.2 56.1V61.7H497.2V56.1H495.2ZM495.2 61.7C495.2 63.4745 495.65 64.9639 496.793 66.1071L498.207 64.6929C497.55 64.0361 497.2 63.1256 497.2 61.7H495.2ZM496.753 66.0644C497.771 67.2099 499.26 67.8 500.9 67.8V65.8C499.74 65.8 498.829 65.3901 498.247 64.7356L496.753 66.0644ZM500.9 67.8H504.1V65.8H500.9V67.8ZM519.081 66.6672C517.948 65.6156 517.4 64.1229 517.4 62H515.4C515.4 64.4771 516.052 66.5844 517.72 68.1328L519.081 66.6672ZM517.4 62V56.2H515.4V62H517.4ZM517.4 56.2C517.4 54.1099 518.031 52.4665 519.133 51.2805L517.667 49.9196C516.169 51.5335 515.4 53.6901 515.4 56.2H517.4ZM519.107 51.3071C520.307 50.1069 521.747 49.5 523.7 49.5V47.5C521.253 47.5 519.293 48.2931 517.693 49.8929L519.107 51.3071ZM523.7 49.5H527V47.5H523.7V49.5ZM527 49.5C528.9 49.5 530.361 50.0383 531.454 50.9634L532.746 49.4366C531.239 48.1617 529.3 47.5 527 47.5V49.5ZM531.422 50.9348C532.492 51.9227 533 53.1436 533 54.8H535C535 52.6564 534.308 50.8773 532.778 49.4652L531.422 50.9348ZM534 53.8H531.1V55.8H534V53.8ZM532.1 54.8C532.1 53.4318 531.593 52.2783 530.707 51.3929L529.293 52.8071C529.808 53.3217 530.1 53.9682 530.1 54.8H532.1ZM530.707 51.3929C529.747 50.4329 528.441 50.1 527 50.1V52.1C528.159 52.1 528.853 52.3671 529.293 52.8071L530.707 51.3929ZM527 50.1H523.7V52.1H527V50.1ZM523.7 50.1C522.123 50.1 520.748 50.7156 519.753 51.8356L521.247 53.1644C521.852 52.4844 522.677 52.1 523.7 52.1V50.1ZM519.719 51.8753C518.759 53.0759 518.3 54.5046 518.3 56.2H520.3C520.3 54.8954 520.641 53.9241 521.281 53.1247L519.719 51.8753ZM518.3 56.2V62H520.3V56.2H518.3ZM518.3 62C518.3 63.5924 518.758 65.0455 519.753 66.1644L521.247 64.8356C520.642 64.1545 520.3 63.2076 520.3 62H518.3ZM519.753 66.1644C520.784 67.3251 522.184 67.8 523.7 67.8V65.8C522.616 65.8 521.816 65.4749 521.247 64.8356L519.753 66.1644ZM523.7 67.8H527V65.8H523.7V67.8ZM527 67.8C528.542 67.8 529.83 67.3085 530.847 66.1644L529.353 64.8356C528.77 65.4915 528.058 65.8 527 65.8V67.8ZM530.847 66.1644C531.847 65.0394 532.3 63.5824 532.3 61.9H530.3C530.3 63.2176 529.953 64.1606 529.353 64.8356L530.847 66.1644ZM531.3 62.9H534.2V60.9H531.3V62.9ZM533.2 61.9C533.2 63.9769 532.577 65.5249 531.467 66.7196L532.933 68.0805C534.424 66.4751 535.2 64.4231 535.2 61.9H533.2ZM531.467 66.7196C530.376 67.8943 528.953 68.5 527.1 68.5V70.5C529.447 70.5 531.424 69.7057 532.933 68.0805L531.467 66.7196ZM527.1 68.5H523.8V70.5H527.1V68.5ZM523.845 68.501C521.844 68.41 520.281 67.7819 519.081 66.6672L517.72 68.1328C519.319 69.6181 521.356 70.39 523.755 70.499L523.845 68.501ZM541.007 66.5929C539.829 65.415 539.2 63.788 539.2 61.7H537.2C537.2 64.212 537.971 66.385 539.593 68.0071L541.007 66.5929ZM539.2 61.7V56.1H537.2V61.7H539.2ZM539.2 56.1C539.2 54.012 539.829 52.385 541.007 51.2071L539.593 49.7929C537.971 51.415 537.2 53.588 537.2 56.1H539.2ZM541.007 51.2071C542.185 50.0292 543.812 49.4 545.9 49.4V47.4C543.388 47.4 541.215 48.1708 539.593 49.7929L541.007 51.2071ZM545.9 49.4H549.2V47.4H545.9V49.4ZM549.2 49.4C551.288 49.4 552.915 50.0292 554.093 51.2071L555.507 49.7929C553.885 48.1708 551.712 47.4 549.2 47.4V49.4ZM554.093 51.2071C555.271 52.385 555.9 54.012 555.9 56.1H557.9C557.9 53.588 557.129 51.415 555.507 49.7929L554.093 51.2071ZM555.9 56.1V61.7H557.9V56.1H555.9ZM555.9 61.7C555.9 63.788 555.271 65.415 554.093 66.5929L555.507 68.0071C557.129 66.385 557.9 64.212 557.9 61.7H555.9ZM554.093 66.5929C552.915 67.7708 551.288 68.4 549.2 68.4V70.4C551.712 70.4 553.885 69.6292 555.507 68.0071L554.093 66.5929ZM549.2 68.4H545.9V70.4H549.2V68.4ZM545.9 68.4C543.719 68.4 542.189 67.7749 541.007 66.5929L539.593 68.0071C541.211 69.6251 543.281 70.4 545.9 70.4V68.4ZM549.2 67.8C550.964 67.8 552.319 67.1957 553.407 66.1071L551.993 64.6929C551.281 65.4043 550.436 65.8 549.2 65.8V67.8ZM553.407 66.1071C554.556 64.9585 555 63.3642 555 61.7H553C553 63.0358 552.644 64.0415 551.993 64.6929L553.407 66.1071ZM555 61.7V56.1H553V61.7H555ZM555 56.1C555 54.4358 554.556 52.8415 553.407 51.6929L551.993 53.1071C552.644 53.7585 553 54.7642 553 56.1H555ZM553.407 51.6929C552.327 50.6124 550.975 50 549.3 50V52C550.425 52 551.273 52.3876 551.993 53.1071L553.407 51.6929ZM549.3 50H546V52H549.3V50ZM546 50C544.36 50 542.871 50.5901 541.853 51.7356L543.347 53.0644C543.929 52.4099 544.84 52 546 52V50ZM541.853 51.7356C540.873 52.8372 540.3 54.381 540.3 56.1H542.3C542.3 54.819 542.727 53.7628 543.347 53.0644L541.853 51.7356ZM540.3 56.1V61.7H542.3V56.1H540.3ZM540.3 61.7C540.3 63.4745 540.75 64.9639 541.893 66.1071L543.307 64.6929C542.65 64.0361 542.3 63.1256 542.3 61.7H540.3ZM541.853 66.0644C542.871 67.2099 544.36 67.8 546 67.8V65.8C544.84 65.8 543.929 65.3901 543.347 64.7356L541.853 66.0644ZM546 67.8H549.2V65.8H546V67.8ZM564.307 67.0929C563.686 66.4722 563.3 65.4014 563.3 63.5H561.3C561.3 65.5986 561.714 67.3278 562.893 68.5071L564.307 67.0929ZM563.3 63.5V40.5H561.3V63.5H563.3ZM562.3 41.5H565.2V39.5H562.3V41.5ZM564.2 40.5V63.5H566.2V40.5H564.2ZM564.2 63.5C564.2 64.061 564.256 64.6017 564.384 65.0826C564.509 65.5534 564.724 66.0377 565.093 66.4071L566.507 64.9929C566.476 64.9623 566.391 64.8466 566.316 64.5674C566.245 64.2983 566.2 63.939 566.2 63.5H564.2ZM565.019 66.3247C565.717 67.1972 566.827 67.4 567.9 67.4V65.4C566.973 65.4 566.683 65.2028 566.581 65.0753L565.019 66.3247ZM567.9 67.4H569.3V65.4H567.9V67.4ZM568.3 66.4V69H570.3V66.4H568.3ZM569.3 68H567.9V70H569.3V68ZM567.85 68.0012C566.038 68.0919 564.919 67.6348 564.264 67.0526L562.936 68.5474C564.081 69.5652 565.762 70.1081 567.95 69.9988L567.85 68.0012ZM109.685 64.0699C110.197 61.1015 110.4 58.043 110.4 55H108.4C108.4 57.957 108.203 60.8985 107.715 63.7301L109.685 64.0699ZM110.4 55C110.4 35.6489 100.419 18.5439 85.4547 8.56795L84.3453 10.2321C98.7814 19.8561 108.4 36.3511 108.4 55H110.4ZM83.9 9.4V63.9H85.9V9.4H83.9ZM84.9 64.9H108.7V62.9H84.9V64.9ZM47.0432 83.4459C43.7083 86.3506 42.1119 90.122 41.9011 94.6535L43.8989 94.7465C44.0882 90.678 45.4917 87.4494 48.3568 84.9541L47.0432 83.4459ZM42.9 93.7H42.8V95.7H42.9V93.7ZM41.8 94.7V108.2H43.8V94.7H41.8ZM42.594 109.179C46.4484 109.99 50.5184 110.5 54.6 110.5V108.5C50.6816 108.5 46.7516 108.01 43.006 107.221L42.594 109.179ZM54.6 110.5C76.1906 110.5 94.9254 98.1761 104.189 80.1572L102.411 79.2428C93.4746 96.6238 75.4094 108.5 54.6 108.5V110.5ZM103.3 78.7H61.1V80.7H103.3V78.7ZM61.0822 78.7002C55.3054 78.8033 50.6651 80.3566 47.0511 83.4392L48.349 84.9608C51.5349 82.2434 55.6946 80.7967 61.1179 80.6998L61.0822 78.7002ZM68.3528 31.9944C68.6913 32.1637 68.9451 32.3319 69.2453 32.5321L70.3547 30.868C70.0549 30.6681 69.7088 30.4363 69.2472 30.2056L68.3528 31.9944ZM70.8 31.7V2.4H68.8V31.7H70.8ZM70.08 1.44C65.1837 0.0119249 59.9891 -0.699997 54.7 -0.699997V1.3C59.8109 1.3 64.8163 1.98808 69.52 3.36L70.08 1.44ZM54.7 -0.699997C34.33 -0.699997 16.5122 10.3009 6.7411 26.6879L8.45891 27.7121C17.8878 11.8991 35.07 1.3 54.7 1.3V-0.699997ZM7.60001 28.2H51.5V26.2H7.60001V28.2ZM51.5 28.2C57.8655 28.2 63.5027 29.4725 68.3387 31.9872L69.2614 30.2128C64.0974 27.5275 58.1345 26.2 51.5 26.2V28.2ZM70.699 58.0546C70.4882 53.4177 68.8887 49.7479 65.5568 46.8459L64.2432 48.3541C67.1113 50.8521 68.5118 53.9823 68.701 58.1454L70.699 58.0546ZM65.5616 46.8502C61.9308 43.6465 57.2707 42.2 51.4 42.2V44.2C56.9293 44.2 61.0692 45.5535 64.2384 48.3498L65.5616 46.8502ZM51.4 42.2H42.8V44.2H51.4V42.2ZM41.8 43.2V68.4H43.8V43.2H41.8ZM43.3547 69.2321C43.4705 69.1548 43.6137 69.0725 43.7961 68.9682C43.9637 68.8725 44.1705 68.7548 44.3547 68.6321L43.2453 66.968C43.1295 67.0452 42.9863 67.1275 42.8039 67.2318C42.6363 67.3275 42.4295 67.4452 42.2453 67.568L43.3547 69.2321ZM44.2614 68.6872C49.0974 66.1725 54.7345 64.9 61.1 64.9V62.9C54.4655 62.9 48.5026 64.2275 43.3387 66.9128L44.2614 68.6872ZM61.1 64.9H69.7V62.9H61.1V64.9ZM70.7 63.9V58.1H68.7V63.9H70.7ZM0.426926 42.8695C-0.493855 46.7573 -0.899994 50.8361 -0.899994 55H1.10001C1.10001 50.964 1.49387 47.0427 2.37309 43.3305L0.426926 42.8695ZM-0.899994 55C-0.899994 75.7768 10.5083 93.7999 27.305 103.369L28.295 101.631C12.0917 92.4001 1.10001 75.0232 1.10001 55H-0.899994ZM28.8 102.5V43.1H26.8V102.5H28.8ZM27.8 42.1H1.40001V44.1H27.8V42.1Z" fill="black" mask="url(#path-1-inside-1_1_2)"/>
</g>
<path d="M175.864 20.1818C175.864 16.4318 174.625 13.5909 172.148 11.6591C169.67 9.70454 166.318 8.72727 162.091 8.72727C159 8.72727 156.216 9.22727 153.739 10.2273C151.261 11.2273 149.239 12.6023 147.67 14.3523C146.102 16.1023 145.136 18.0909 144.773 20.3182C144.477 22.1818 144.67 23.7841 145.352 25.125C146.034 26.4432 147 27.5455 148.25 28.4318C149.523 29.2955 150.886 30.0114 152.341 30.5795C153.795 31.125 155.136 31.5682 156.364 31.9091L163.182 33.8182C164.886 34.2955 166.784 34.9545 168.875 35.7955C170.966 36.6364 172.92 37.7841 174.739 39.2386C176.557 40.6705 177.943 42.5114 178.898 44.7614C179.875 47.0114 180.091 49.7727 179.545 53.0455C178.909 56.8182 177.352 60.2273 174.875 63.2727C172.42 66.3182 169.17 68.7386 165.125 70.5341C161.102 72.3295 156.409 73.2273 151.045 73.2273C146.045 73.2273 141.841 72.4205 138.432 70.8068C135.045 69.1932 132.545 66.9432 130.932 64.0568C129.341 61.1705 128.727 57.8182 129.091 54H137.818C137.591 56.6364 138.114 58.8182 139.386 60.5455C140.659 62.25 142.432 63.5227 144.705 64.3636C146.977 65.1818 149.5 65.5909 152.273 65.5909C155.5 65.5909 158.477 65.0682 161.205 64.0227C163.955 62.9545 166.227 61.4773 168.023 59.5909C169.841 57.6818 170.955 55.4545 171.364 52.9091C171.773 50.5909 171.455 48.7045 170.409 47.25C169.364 45.7955 167.852 44.6136 165.875 43.7045C163.898 42.7955 161.727 42 159.364 41.3182L151.182 38.8636C146 37.2955 142.057 35.0568 139.352 32.1477C136.67 29.2386 135.705 25.4318 136.455 20.7273C137.136 16.8182 138.784 13.4091 141.398 10.5C144.011 7.56818 147.25 5.29545 151.114 3.68182C154.977 2.04545 159.136 1.22727 163.591 1.22727C168.091 1.22727 171.943 2.04545 175.148 3.68182C178.352 5.29545 180.739 7.53409 182.307 10.3977C183.875 13.2386 184.455 16.5 184.045 20.1818H175.864ZM202.446 40.5L197.264 72H189.219L200.81 2.18182H208.855L204.628 27.8182H205.31C206.946 25.0909 209.128 22.9318 211.855 21.3409C214.605 19.75 218.06 18.9545 222.219 18.9545C225.764 18.9545 228.753 19.6705 231.185 21.1023C233.639 22.5114 235.366 24.6818 236.366 27.6136C237.389 30.5227 237.537 34.2273 236.81 38.7273L231.219 72H223.173L228.628 39.2727C229.31 35.1136 228.753 31.8977 226.957 29.625C225.185 27.3295 222.423 26.1818 218.673 26.1818C216.037 26.1818 213.582 26.7386 211.31 27.8523C209.06 28.9659 207.151 30.5909 205.582 32.7273C204.037 34.8636 202.991 37.4545 202.446 40.5ZM267.756 73.0909C262.733 73.0909 258.585 71.9773 255.312 69.75C252.04 67.5 249.756 64.3636 248.46 60.3409C247.165 56.2955 246.96 51.5909 247.847 46.2273C248.733 40.8636 250.494 36.1364 253.131 32.0455C255.767 27.9318 259.051 24.7273 262.983 22.4318C266.915 20.1136 271.233 18.9545 275.938 18.9545C278.665 18.9545 281.29 19.4091 283.812 20.3182C286.335 21.2273 288.517 22.7045 290.358 24.75C292.199 26.7727 293.483 29.4545 294.21 32.7955C294.938 36.1364 294.892 40.25 294.074 45.1364L293.528 48.5455H253.165L254.256 41.5909H286.438C286.96 38.6364 286.824 36 286.028 33.6818C285.256 31.3636 283.903 29.5341 281.972 28.1932C280.063 26.8523 277.642 26.1818 274.71 26.1818C271.688 26.1818 268.869 27 266.256 28.6364C263.642 30.25 261.46 32.2955 259.71 34.7727C257.96 37.2273 256.869 39.7273 256.438 42.2727L255.483 48.2727C254.801 52.6136 254.903 56.0682 255.79 58.6364C256.699 61.2045 258.278 63.0568 260.528 64.1932C262.778 65.3068 265.597 65.8636 268.983 65.8636C271.142 65.8636 273.131 65.5682 274.949 64.9773C276.767 64.3636 278.392 63.4545 279.824 62.25C281.256 61.0227 282.46 59.5 283.438 57.6818L290.801 59.8636C289.551 62.5 287.79 64.8182 285.517 66.8182C283.267 68.7955 280.631 70.3409 277.608 71.4545C274.608 72.5455 271.324 73.0909 267.756 73.0909ZM323.818 73.0909C318.795 73.0909 314.648 71.9773 311.375 69.75C308.102 67.5 305.818 64.3636 304.523 60.3409C303.227 56.2955 303.023 51.5909 303.909 46.2273C304.795 40.8636 306.557 36.1364 309.193 32.0455C311.83 27.9318 315.114 24.7273 319.045 22.4318C322.977 20.1136 327.295 18.9545 332 18.9545C334.727 18.9545 337.352 19.4091 339.875 20.3182C342.398 21.2273 344.58 22.7045 346.42 24.75C348.261 26.7727 349.545 29.4545 350.273 32.7955C351 36.1364 350.955 40.25 350.136 45.1364L349.591 48.5455H309.227L310.318 41.5909H342.5C343.023 38.6364 342.886 36 342.091 33.6818C341.318 31.3636 339.966 29.5341 338.034 28.1932C336.125 26.8523 333.705 26.1818 330.773 26.1818C327.75 26.1818 324.932 27 322.318 28.6364C319.705 30.25 317.523 32.2955 315.773 34.7727C314.023 37.2273 312.932 39.7273 312.5 42.2727L311.545 48.2727C310.864 52.6136 310.966 56.0682 311.852 58.6364C312.761 61.2045 314.341 63.0568 316.591 64.1932C318.841 65.3068 321.659 65.8636 325.045 65.8636C327.205 65.8636 329.193 65.5682 331.011 64.9773C332.83 64.3636 334.455 63.4545 335.886 62.25C337.318 61.0227 338.523 59.5 339.5 57.6818L346.864 59.8636C345.614 62.5 343.852 64.8182 341.58 66.8182C339.33 68.7955 336.693 70.3409 333.67 71.4545C330.67 72.5455 327.386 73.0909 323.818 73.0909ZM354.79 91.6364L366.858 19.6364H374.631L373.267 27.9545H374.222C374.949 27.0455 375.949 25.8864 377.222 24.4773C378.517 23.0455 380.256 21.7727 382.438 20.6591C384.642 19.5227 387.449 18.9545 390.858 18.9545C395.267 18.9545 398.96 20.0568 401.938 22.2614C404.915 24.4659 407.017 27.5909 408.244 31.6364C409.472 35.6818 409.631 40.4545 408.722 45.9545C407.812 51.5 406.074 56.3068 403.506 60.375C400.938 64.4205 397.801 67.5568 394.097 69.7841C390.392 71.9886 386.358 73.0909 381.994 73.0909C378.631 73.0909 376.028 72.5341 374.188 71.4205C372.347 70.2841 371.006 69 370.165 67.5682C369.324 66.1136 368.676 64.9091 368.222 63.9545H367.54L362.903 91.6364H354.79ZM370.403 45.8182C369.767 49.7727 369.767 53.2614 370.403 56.2841C371.063 59.2841 372.369 61.6364 374.324 63.3409C376.301 65.0227 378.903 65.8636 382.131 65.8636C385.494 65.8636 388.438 64.9773 390.96 63.2045C393.506 61.4091 395.597 59 397.233 55.9773C398.892 52.9318 400.04 49.5455 400.676 45.8182C401.267 42.1364 401.244 38.8182 400.608 35.8636C399.972 32.8864 398.676 30.5341 396.722 28.8068C394.767 27.0568 392.085 26.1818 388.676 26.1818C385.403 26.1818 382.506 27.0114 379.983 28.6705C377.483 30.3068 375.415 32.6023 373.778 35.5568C372.165 38.4886 371.04 41.9091 370.403 45.8182Z" fill="white"/>
</g>
<defs>
<filter id="filter0_d_1_2" x="-3.89999" y="0.300003" width="577.2" height="117.2" filterUnits="userSpaceOnUse" color-interpolation-filters="sRGB">
<feFlood flood-opacity="0" result="BackgroundImageFix"/>
<feColorMatrix in="SourceAlpha" type="matrix" values="0 0 0 0 0 0 0 0 0 0 0 0 0 0 0 0 0 0 127 0" result="hardAlpha"/>
<feOffset dy="4"/>
<feGaussianBlur stdDeviation="2"/>
<feComposite in2="hardAlpha" operator="out"/>
<feColorMatrix type="matrix" values="0 0 0 0 0 0 0 0 0 0 0 0 0 0 0 0 0 0 0.25 0"/>
<feBlend mode="normal" in2="BackgroundImageFix" result="effect1_dropShadow_1_2"/>
<feBlend mode="normal" in="SourceGraphic" in2="effect1_dropShadow_1_2" result="shape"/>
</filter>
<clipPath id="clip0_1_2">
<rect width="570" height="110" fill="white"/>
</clipPath>
</defs>
</svg>
